<svg id="Layer_1" data-name="Layer 1" xmlns="http://www.w3.org/2000/svg" viewBox="0 0 179.64 186.17"><defs><style>.cls-1{fill:none;}.cls-2{fill:#f7ac5a;}.cls-3{fill:#a1dbe8;}.cls-4{fill:#79c0d0;}</style></defs><title>logo</title><path class="cls-1" d="M5.81,176.35H5.08v7.24H5.81a4.27,4.27,0,0,0,2.71-.8,3.73,3.73,0,0,0,1.16-2.87,3.53,3.53,0,0,0-1-2.56A3.92,3.92,0,0,0,5.81,176.35Z"/><path class="cls-1" d="M103.36,176.35h-0.73v7.24h0.73a4.27,4.27,0,0,0,2.71-.8,3.73,3.73,0,0,0,1.16-2.87,3.53,3.53,0,0,0-1-2.56A3.92,3.92,0,0,0,103.36,176.35Z"/><path class="cls-1" d="M174.18,176.27h-0.91v3.23h1a2.08,2.08,0,0,0,1.48-.45,1.65,1.65,0,0,0,.45-1.17,1.57,1.57,0,0,0-.45-1.16A2.19,2.19,0,0,0,174.18,176.27Z"/><path class="cls-1" d="M99.12,54.44l31.63-27.61h19.94V1.73H79.37V26.84H91.45l-33,30.11V26.84H69.21V1.73H2.11V26.84h19v78.23h-19V130H71.51V105.06h-13v-15L70.36,79.18l23.2,25.88H81.1V130h76.49V105.06H141.87Zm36.62,48.13H95.86l-2.11-2.5h39.88ZM82.82,5.18h64.42V19H82.82V5.18ZM101,23.39H82.82V21.28h64.42v2.11H129.41l-10.73,9.2h-28ZM87.8,35.09H116L103.53,45.82H75.73ZM71.9,49.27h27.8l-5.56,5,4,4.79H60.39ZM5.37,5.18H65.76V19H5.37V5.18Zm0,18.21V21.28H65.76v2.11H55v9.2H24.54v-9.2H5.37ZM24.54,45.82V35.09H55V45.82H24.54ZM55,49.27V59H24.54V49.27H55ZM24.54,92.79v-4H55v4H24.54ZM55,100.08v2.5H24.54v-2.5H55Zm13,12.27v1.92H5.37v-1.92H68.06ZM61.16,83H24.54v-6.9H69ZM24.54,71.32V62.5h76.69l7.48,8.82H24.54Zm47.74,4.79h40.64l5.94,6.9H78.41Zm15,16.68-3.65-4h40.26l3.45,4H87.23Zm66.33,21.47h-69v-1.92h69v1.92Z"/><path class="cls-1" d="M161,176.3a3.51,3.51,0,0,0-3.65,3.7,3.5,3.5,0,0,0,3.64,3.64,3.5,3.5,0,0,0,3.67-3.65,3.75,3.75,0,0,0-1-2.69A3.81,3.81,0,0,0,161,176.3Z"/><polygon class="cls-1" points="84.17 97.97 78.22 102.95 88.96 102.95 84.17 97.97"/><path class="cls-2" d="M159.51,103.14H147.24l-27-30.1,29-23.58h24.16V21.28L152.42,0h-75V6.32L71.12,0H0V28.56L19.37,48.31v54.83H0v28.76l20.7,20.9H93.37V147l5.75,5.75h80.52V124.43ZM157.59,130H81.1V105.06H93.56L70.36,79.18,58.47,90.11v15h13V130H2.11V105.06h19V26.84h-19V1.73h67.1V26.84H58.47V56.94l33-30.11H79.37V1.73h71.32V26.84H130.75L99.12,54.44l42.75,50.62h15.72V130ZM78.22,103l5.95-5L89,103H78.22Z"/><polygon class="cls-3" points="24.54 32.59 55.02 32.59 55.02 23.39 65.76 23.39 65.76 21.28 5.37 21.28 5.37 23.39 24.54 23.39 24.54 32.59"/><polygon class="cls-3" points="101.23 62.5 24.54 62.5 24.54 71.32 108.71 71.32 101.23 62.5"/><polygon class="cls-3" points="115.99 35.09 87.81 35.09 75.73 45.82 103.53 45.82 115.99 35.09"/><rect class="cls-3" x="5.37" y="112.35" width="62.69" height="1.92"/><polygon class="cls-3" points="24.54 83.01 61.16 83.01 69.02 76.11 24.54 76.11 24.54 83.01"/><polygon class="cls-3" points="94.14 54.26 99.69 49.27 71.9 49.27 60.39 59.05 98.16 59.05 94.14 54.26"/><polygon class="cls-3" points="95.86 102.57 135.74 102.57 133.63 100.08 93.75 100.08 95.86 102.57"/><polygon class="cls-3" points="129.41 23.39 147.24 23.39 147.24 21.28 82.83 21.28 82.83 23.39 101.03 23.39 90.69 32.59 118.68 32.59 129.41 23.39"/><rect class="cls-3" x="24.54" y="100.08" width="30.48" height="2.5"/><rect class="cls-3" x="24.54" y="88.76" width="30.48" height="4.03"/><rect class="cls-3" x="5.37" y="5.18" width="60.39" height="13.8"/><rect class="cls-3" x="24.54" y="49.27" width="30.48" height="9.78"/><rect class="cls-3" x="24.54" y="35.09" width="30.48" height="10.73"/><rect class="cls-3" x="82.82" y="5.18" width="64.42" height="13.8"/><rect class="cls-3" x="84.55" y="112.35" width="69.02" height="1.92"/><polygon class="cls-3" points="123.85 88.77 83.59 88.77 87.23 92.79 127.3 92.79 123.85 88.77"/><polygon class="cls-3" points="112.92 76.11 72.28 76.11 78.42 83.01 118.86 83.01 112.92 76.11"/><path class="cls-4" d="M6.1,174H2.34v11.9H6.18a6.4,6.4,0,0,0,4.68-1.78,5.72,5.72,0,0,0,1.62-4.21,5.66,5.66,0,0,0-1.71-4.25A6.28,6.28,0,0,0,6.1,174Zm2.42,8.77a4.27,4.27,0,0,1-2.71.8H5.08v-7.24H5.81a3.92,3.92,0,0,1,2.89,1,3.53,3.53,0,0,1,1,2.56A3.73,3.73,0,0,1,8.52,182.8Z"/><polygon class="cls-4" points="15.55 185.92 22.26 185.92 22.26 183.59 18.29 183.59 18.29 180.96 22.06 180.96 22.06 178.65 18.29 178.65 18.29 176.35 22.26 176.35 22.26 174.03 15.55 174.03 15.55 185.92"/><path class="cls-4" d="M30.8,178.91l-0.89-.33a4.58,4.58,0,0,1-1.5-.69,0.82,0.82,0,0,1-.27-0.66,1.06,1.06,0,0,1,.3-0.75,1.52,1.52,0,0,1,1.16-.41,3,3,0,0,1,2,.84l1.23-2a5.65,5.65,0,0,0-3.53-1.17,3.8,3.8,0,0,0-2.93,1.08,3.64,3.64,0,0,0-1,2.67,2.9,2.9,0,0,0,.72,2.06,4.05,4.05,0,0,0,1.65,1l1,0.33a6,6,0,0,1,1.39.67,1,1,0,0,1,.41.86,1.25,1.25,0,0,1-.43,1,1.88,1.88,0,0,1-1.25.42,2.77,2.77,0,0,1-1.49-.44,6.14,6.14,0,0,1-1.11-.91l-1.42,2a7.17,7.17,0,0,0,1.74,1.28,5,5,0,0,0,2.35.5,4.56,4.56,0,0,0,3.36-1.2A4.23,4.23,0,0,0,33.29,182a2.93,2.93,0,0,0-.87-2.2A4.77,4.77,0,0,0,30.8,178.91Z"/><rect class="cls-4" x="36.31" y="174.02" width="2.75" height="11.9"/><path class="cls-4" d="M48.41,181.64h2.86a2.75,2.75,0,0,1-.85,1.4,3.63,3.63,0,0,1-4.47-.28A3.74,3.74,0,0,1,45,180a4.08,4.08,0,0,1,1-2.81,3.2,3.2,0,0,1,2.46-1,2.89,2.89,0,0,1,1.82.56,3.55,3.55,0,0,1,1,1.28l2.47-1.34a6.58,6.58,0,0,0-1.92-2.12,6.05,6.05,0,0,0-3.33-.87,6.15,6.15,0,0,0-4.66,1.72,6.76,6.76,0,0,0,0,9,5.55,5.55,0,0,0,4.35,1.65,5.49,5.49,0,0,0,4.24-1.61,7.75,7.75,0,0,0,1.83-5v-0.12H48.41v2.22Z"/><polygon class="cls-4" points="66.19 181.69 59.74 174.03 57.36 174.03 57.36 185.92 60.1 185.92 60.1 178.22 66.55 185.92 68.93 185.92 68.93 174.03 66.19 174.03 66.19 181.69"/><polygon class="cls-4" points="85.55 176.09 83.31 176.09 83.31 178.83 80.56 178.83 80.56 180.89 83.31 180.89 83.31 183.64 85.55 183.64 85.55 180.89 88.29 180.89 88.29 178.83 85.55 178.83 85.55 176.09"/><path class="cls-4" d="M103.65,174H99.9v11.9h3.84a6.4,6.4,0,0,0,4.68-1.78,5.72,5.72,0,0,0,1.62-4.21,5.66,5.66,0,0,0-1.71-4.25A6.28,6.28,0,0,0,103.65,174Zm2.42,8.77a4.27,4.27,0,0,1-2.71.8h-0.73v-7.24h0.73a3.92,3.92,0,0,1,2.89,1,3.53,3.53,0,0,1,1,2.56A3.73,3.73,0,0,1,106.07,182.8Z"/><polygon class="cls-4" points="113.1 185.92 119.82 185.92 119.82 183.59 115.84 183.59 115.84 180.96 119.61 180.96 119.61 178.65 115.84 178.65 115.84 176.35 119.82 176.35 119.82 174.03 113.1 174.03 113.1 185.92"/><polygon class="cls-4" points="127.91 181.64 124.91 174.03 121.95 174.03 127 185.92 128.85 185.92 133.89 174.03 130.94 174.03 127.91 181.64"/><polygon class="cls-4" points="136.28 185.92 142.99 185.92 142.99 183.59 139.01 183.59 139.01 180.96 142.77 180.96 142.77 178.65 139.01 178.65 139.01 176.35 142.99 176.35 142.99 174.03 136.28 174.03 136.28 185.92"/><polygon class="cls-4" points="149.11 174.03 146.36 174.03 146.36 185.92 152.79 185.92 152.79 183.59 149.11 183.59 149.11 174.03"/><path class="cls-4" d="M161,173.78a6.35,6.35,0,0,0-4.65,1.75,6.61,6.61,0,0,0-1.83,4.5,6,6,0,0,0,1.86,4.42,6.48,6.48,0,0,0,4.62,1.73,6.26,6.26,0,0,0,4.59-1.73,6.31,6.31,0,0,0,0-8.95A6.34,6.34,0,0,0,161,173.78Zm2.59,8.87a3.91,3.91,0,0,1-5.18,0,3.6,3.6,0,0,1-1.08-2.67,3.51,3.51,0,0,1,3.65-3.7,3.81,3.81,0,0,1,2.61,1,3.75,3.75,0,0,1,1,2.69A3.55,3.55,0,0,1,163.6,182.64Z"/><path class="cls-4" d="M174.71,174h-4.18v11.9h2.75v-4.18h1.65a4,4,0,0,0,3-1,3.83,3.83,0,0,0,1-2.81,3.67,3.67,0,0,0-1.16-2.87A4.48,4.48,0,0,0,174.71,174Zm1,5a2.08,2.08,0,0,1-1.48.45h-1v-3.23h0.91a2.19,2.19,0,0,1,1.55.45,1.57,1.57,0,0,1,.45,1.16A1.65,1.65,0,0,1,175.73,179.05Z"/></svg>