<svg id="Layer_1" data-name="Layer 1" xmlns="http://www.w3.org/2000/svg" viewBox="0 0 84.76 84.52"><defs><style>.cls-1{fill:#0e1463;}</style></defs><title>Artboard 1</title><path class="cls-1" d="M11.25,22.46a11.16,11.16,0,0,1-7.48-2.9A10.82,10.82,0,0,1,0,12.07,10.87,10.87,0,0,1,2.88,3.71,11,11,0,0,1,10.44,0l.85,0a11.2,11.2,0,0,1,7.53,2.91,10.91,10.91,0,0,1,3.65,7.6,11.16,11.16,0,0,1-2.9,8.23,11.06,11.06,0,0,1-7.51,3.69Q11.65,22.46,11.25,22.46Zm0-19.75-.65,0A8.32,8.32,0,0,0,4.87,5.55a8.09,8.09,0,0,0-2.13,6.3,8.21,8.21,0,0,0,2.84,5.7,8.5,8.5,0,0,0,5.67,2.2l.62,0a8.4,8.4,0,0,0,5.69-2.81,8.53,8.53,0,0,0,2.2-6.3A8.21,8.21,0,0,0,17,4.9,8.44,8.44,0,0,0,11.29,2.71Z"/><path class="cls-1" d="M45.6,84.52l-.67,0c-1.1,0-2.32-.08-3.84-.08l-3.14,0-3.14,0h-2l-.4,0-.76,0h0a2.57,2.57,0,0,1-2.38-1.11,6.37,6.37,0,0,1-.32-3.14c0-.29,0-.57,0-.8V32.08c0-.2,0-.44,0-.69-.05-1.77,0-2.89.6-3.58a3,3,0,0,1,2.33-.71l.52,0c1.35.06,2.79.09,4.52.09l3.77,0c1.29,0,2.59,0,3.91,0h.9a2.55,2.55,0,0,1,2,.69A3.16,3.16,0,0,1,48,30.08c0,.12,0,.24,0,.35,0,.5,0,1,0,1.52v.15A19.73,19.73,0,0,1,62,25.79l1.37,0a27.66,27.66,0,0,1,7.73,1.08c7.5,2.2,11.92,8.22,13.13,17.91a113.6,113.6,0,0,1,.47,14.7c0,1.45,0,2.89,0,4.33V80.69c0,.17,0,.34,0,.51,0,1,.09,2.24-1,2.92A3.17,3.17,0,0,1,82,84.5c-.26,0-.52,0-.77,0H81c-1.07,0-2.18,0-3.47,0l-3.41,0q-1.75,0-3.57,0H68.5l-.38,0-.66,0a2.56,2.56,0,0,1-2.09-.82c-.54-.7-.54-1.74-.47-3.24,0-.23,0-.45,0-.61V57.45c0-4.16,0-7.75-1.21-10.46s-3.29-3.69-6.89-3.54c-4.86.21-7.32,2.82-8,8.49a52.61,52.61,0,0,0-.22,5.91v22c0,.16,0,.35,0,.55.05,1.4.11,3-1,3.71A3.63,3.63,0,0,1,45.6,84.52Zm-4.51-2.81c1.56,0,2.82,0,4,.08.29,0,.65,0,.86,0,0-.4,0-1,0-1.29s0-.46,0-.65v-22a54,54,0,0,1,.24-6.23C47,44.66,50.51,41,56.7,40.74h.75c4.32,0,7.18,1.68,8.74,5.16,1.44,3.23,1.44,7.09,1.44,11.56V79.83c0,.2,0,.45,0,.74s0,.83,0,1.22l.41,0,.43,0c.53,0,1,0,1.54,0h.63c1.2,0,2.37,0,3.54,0s2.29,0,3.44,0c1.31,0,2.48,0,3.58.06l.23,0H82c0-.16,0-.33,0-.47s0-.42,0-.62V63.78c0-1.45,0-2.9,0-4.35a109.85,109.85,0,0,0-.45-14.35c-1.08-8.63-4.75-13.75-11.2-15.64a24.87,24.87,0,0,0-7-1l-1.24,0c-7.8.37-11.88,4.41-13.93,7.74a1.59,1.59,0,0,1-1.45,1h0a1.65,1.65,0,0,1-.72-.17l-.66-.34L45.33,36a36.47,36.47,0,0,1-.09-4.06c0-.5,0-1,0-1.48V30a1,1,0,0,0,0-.18h-.68c-1.3,0-2.59,0-3.87,0s-2.54,0-3.81,0c-1.78,0-3.25,0-4.65-.1-.21,0-.45,0-.61,0,0,.46,0,1.13,0,1.51s0,.53,0,.75V79.46c0,.26,0,.57,0,.9s0,1,0,1.44l.63,0,.46,0c.51,0,1,0,1.5,0h.6l3.11,0Z"/><path class="cls-1" d="M3.91,84.5a2.55,2.55,0,0,1-2.17-.87c-.49-.69-.49-1.7-.43-3.27,0-.28,0-.55,0-.77,0-1.69,0-3.42,0-5.15s0-3.4,0-5.06V42.06c0-1.92,0-3.84,0-5.79s0-4,0-6.11V30c0-1,0-2.62,2.1-2.85a11.58,11.58,0,0,1,1.42-.07l1.45,0,1.32,0h8.7c.42,0,.88,0,1.35,0h.07a3.58,3.58,0,0,1,2.67.52c.68.63.73,1.67.68,3.73,0,.19,0,.36,0,.49V79.66c0,.14,0,.33,0,.54.06,1.9,0,3.11-.75,3.78a2.74,2.74,0,0,1-1.83.51H17.9l-.38,0c-2.4,0-4.66,0-7,0H4.82l-.26,0ZM4,29.82v.34c0,2.08,0,4.1,0,6.1s0,3.88,0,5.8V69.38c0,1.66,0,3.37,0,5.08s0,3.44,0,5.13c0,.25,0,.55,0,.87s0,.91,0,1.32h.43l.3,0q.82,0,1.56,0h4.24c2.34,0,4.61,0,7,0l.44,0h.39c0-.48,0-1.16,0-1.5s0-.45,0-.62V31.89c0-.15,0-.34,0-.56s0-1,0-1.49H17.8c-.53,0-1.05,0-1.52,0H7.62l-1.4,0C5.43,29.81,4.61,29.79,4,29.82Z"/></svg>