<svg id="Layer_1" data-name="Layer 1" xmlns="http://www.w3.org/2000/svg" viewBox="0 0 53.28 76"><defs><style>.cls-1{fill:#0e1463;}</style></defs><title>Artboard 1</title><path class="cls-1" d="M48,76H5.25A5.26,5.26,0,0,1,0,70.75V5.25A5.26,5.26,0,0,1,5.25,0H48a5.25,5.25,0,0,1,5.25,5.25v65.5A5.26,5.26,0,0,1,48,76ZM5.25,2.5A2.75,2.75,0,0,0,2.5,5.25v65.5A2.75,2.75,0,0,0,5.25,73.5H48a2.75,2.75,0,0,0,2.75-2.75V5.25A2.75,2.75,0,0,0,48,2.5Z"/><rect class="cls-1" x="11.94" y="21.38" width="29.4" height="2.5"/><rect class="cls-1" x="11.94" y="36.08" width="29.4" height="2.5"/><rect class="cls-1" x="11.94" y="50.78" width="29.4" height="2.5"/></svg>