<svg id="Layer_1" data-name="Layer 1" xmlns="http://www.w3.org/2000/svg" viewBox="0 0 104.33 84.1"><defs><style>.cls-1{fill:#0e1463;}</style></defs><title>Artboard 1</title><path class="cls-1" d="M34.55,84.1C16.36,84.1,8.47,80.64,0,73.78c4.87.12,18.44-.25,30.36-8.4C23.49,64,16.05,60.29,13.76,50.86l-.68-2.81,2.55,1.18a13,13,0,0,0,4,1.08C13.21,47,7.17,41,6.56,30.12l-.2-3.59,2.49,2.4a11,11,0,0,0,6,3.32C3,21.16,9.15,5,9.22,4.79l.84-2.15,1.47,1.77C11.61,4.51,20,14.49,30,19.46c7.84,3.89,17.21,5.16,21,5.54-.53-4.32-.57-15.22,10.75-21.89a20.43,20.43,0,0,1,10.46-3c8,0,13.94,4.94,15.59,6.47,3.44-.3,9.71-3.3,11.4-4.57l2.71-2-.56,3.34c-.38,2.25-2.46,5.79-4.95,8.52,2.69-.21,6.86-1.17,8-2.06-1.15,6.06-8.43,10.91-10.23,12.42a71.8,71.8,0,0,1-3.29,20.22c-3.26,10.53-10.52,25-26.51,34A60,60,0,0,1,34.55,84.1ZM8.37,76.16a71.51,71.51,0,0,0,26.18,5.23h0A57.22,57.22,0,0,0,63,74C92.09,57.68,91.4,22,91.39,21.63l0-.67.51-.42a95.25,95.25,0,0,0,7-6.46c-3.38.8-7.18,1.35-7.24,1.36l-.77-2.56c2.16-1.05,4.67-4,6.24-6.6-3.09,1.5-7.21,3.06-9.9,3.06h-.58l-.4-.42c0-.06-6-6.08-14.09-6.08A17.74,17.74,0,0,0,63.1,5.45c-12.49,7.35-9.34,20.16-9.2,20.7l.47,1.79-1.85-.1c-.53,0-13.21-.73-23.75-5.95C20.82,17.94,14.06,11.22,11.07,8c-1.25,4.9-2.8,16.75,8.31,24.48l2.9,2-3.51.44a19.4,19.4,0,0,1-2.38.17A12,12,0,0,1,9.61,33c1.44,8.31,6.89,14,16.23,16.87l4.28,1.33-4.3,1.27a17.48,17.48,0,0,1-8.66.13c3.05,7.52,10.64,9.92,16.77,10.56l3.26.34-2.55,2.06C25.38,73,14.74,75.41,8.37,76.16Z"/></svg>